<svg width="16" height="16" viewBox="0 0 16 16" fill="none" xmlns="http://www.w3.org/2000/svg">
<g clip-path="url(#clip0_375_336)">
<mask id="mask0_375_336" style="mask-type:alpha" maskUnits="userSpaceOnUse" x="0" y="0" width="16" height="16">
<path d="M16 8C16 3.58172 12.4183 0 8 0C3.58172 0 0 3.58172 0 8C0 12.4183 3.58172 16 8 16C12.4183 16 16 12.4183 16 8Z" fill="white"/>
</mask>
<g mask="url(#mask0_375_336)">
<path d="M16 0H0V16H16V0Z" fill="#827085"/>
<path d="M12.0767 18.2392C16.0134 16.2333 17.5787 11.4159 15.5728 7.47922C13.567 3.5425 8.74958 1.97723 4.81287 3.98309C0.876151 5.98895 -0.689119 10.8064 1.31674 14.7431C3.32259 18.6798 8.14 20.2451 12.0767 18.2392Z" fill="#CCFC8E"/>
<path d="M2.64648 9.88318C2.62335 10.3246 2.83497 10.7602 3.23479 11.0941C3.63461 11.4281 4.18987 11.633 4.77844 11.6639C5.367 11.6947 5.94064 11.5489 6.37318 11.2586C6.80571 10.9683 7.0617 10.5572 7.08484 10.1158" fill="black"/>
<path d="M2.51749 8.09616C2.53034 7.85103 2.39172 7.64451 2.20788 7.63488C2.02403 7.62524 1.86459 7.81614 1.85174 8.06127C1.83889 8.30639 1.97751 8.51291 2.16136 8.52255C2.3452 8.53218 2.50465 8.34128 2.51749 8.09616Z" fill="black"/>
<path d="M7.84366 8.3753C7.85651 8.13018 7.71789 7.92366 7.53405 7.91402C7.35021 7.90439 7.19076 8.09529 7.17791 8.34041C7.16507 8.58554 7.30368 8.79206 7.48753 8.80169C7.67137 8.81133 7.83082 8.62043 7.84366 8.3753Z" fill="black"/>
</g>
</g>
<defs>
<clipPath id="clip0_375_336">
<rect width="16" height="16" fill="white"/>
</clipPath>
</defs>
</svg>