<svg width="28" height="32" viewBox="0 0 28 32" fill="none" xmlns="http://www.w3.org/2000/svg">
<g clip-path="url(#clip0_182_113)">
<path d="M13.332 6.36185C12.1819 6.475 11.1215 7.03267 10.3765 7.91609C9.63149 8.79951 9.26082 9.93888 9.34342 11.0915C9.3628 11.3983 9.29693 11.7045 9.15308 11.9762C9.00923 12.2478 8.79303 12.4744 8.52839 12.6308C8.26013 12.7946 7.95169 12.8809 7.63735 12.8799C7.33958 12.8733 7.04861 12.7896 6.79276 12.6371C6.08751 12.1912 5.27075 11.9534 4.43637 11.9509C4.26266 11.9541 4.08927 11.9668 3.91695 11.9889C2.82868 12.16 1.84307 12.73 1.15209 13.588C0.461107 14.446 0.114248 15.5304 0.179076 16.6301C0.243905 17.7299 0.715778 18.7661 1.50278 19.5369C2.28978 20.3078 3.33554 20.758 4.43637 20.8001C4.5774 20.8034 4.7185 20.7971 4.85866 20.7811C5.88741 20.6825 6.8494 20.2276 7.57843 19.4951C8.30746 18.7626 8.75773 17.7985 8.85144 16.7693C8.87045 16.5346 8.87045 16.2987 8.85144 16.064C8.83178 15.757 8.89777 15.4505 9.04204 15.1787C9.18632 14.9069 9.40322 14.6805 9.66858 14.5248C9.93046 14.363 10.2328 14.2788 10.5406 14.282C10.8397 14.2797 11.133 14.364 11.3852 14.5248C12.0962 14.9708 12.9192 15.2058 13.7585 15.2026C13.9315 15.212 14.1049 15.212 14.2779 15.2026C15.3895 15.0568 16.4045 14.4954 17.1188 13.6314C17.8331 12.7674 18.1937 11.6649 18.1278 10.5457C18.062 9.42662 17.5747 8.37397 16.764 7.59966C15.9533 6.82534 14.8795 6.38684 13.7585 6.3724C13.6179 6.36308 13.4768 6.36308 13.3362 6.3724" fill="#FCD15A"/>
<path d="M22.6647 11.9636C21.5143 12.0767 20.4535 12.6347 19.7085 13.5186C18.9634 14.4025 18.593 15.5424 18.6762 16.6954C18.6912 16.997 18.625 17.2971 18.4847 17.5645C18.3443 17.8318 18.1348 18.0567 17.878 18.2156L17.859 18.2346C17.591 18.3981 17.2819 18.4817 16.968 18.4753C16.6706 18.4682 16.3799 18.3853 16.1234 18.2346C15.4336 17.7935 14.6345 17.5533 13.8158 17.5407C12.9971 17.5282 12.1911 17.7439 11.4881 18.1637C10.7851 18.5835 10.2129 19.1908 9.83556 19.9175C9.45827 20.6442 9.2908 21.4616 9.35192 22.2781C9.37131 22.5849 9.30543 22.891 9.16159 23.1627C9.01774 23.4344 8.80154 23.6609 8.5369 23.8173C8.26663 23.9842 7.95503 24.072 7.63741 24.0707C7.33964 24.0641 7.04867 23.9804 6.79283 23.8279C6.08757 23.382 5.27082 23.1442 4.43643 23.1417C4.26273 23.1449 4.08933 23.1576 3.91701 23.1797C2.82013 23.3396 1.82293 23.9045 1.12191 24.7632C0.420886 25.6218 0.0668912 26.7119 0.129684 27.8186C0.192477 28.9253 0.667502 29.9683 1.46115 30.7421C2.2548 31.516 3.3095 31.9645 4.41743 31.9993C4.55846 32.0023 4.69953 31.9959 4.83972 31.9803C5.86594 31.8809 6.82493 31.4252 7.5501 30.6923C8.27527 29.9595 8.7208 28.9957 8.80928 27.9685C8.82828 27.7345 8.82828 27.4994 8.80928 27.2654C8.7928 26.9611 8.86031 26.6581 9.00443 26.3896C9.14855 26.1211 9.36372 25.8974 9.62642 25.743L9.64542 25.724C9.91508 25.5612 10.2258 25.4791 10.5407 25.4875C10.8394 25.4857 11.1324 25.5692 11.3853 25.7282C12.09 26.1753 12.9071 26.4132 13.7417 26.4144C13.9085 26.4144 14.0753 26.3976 14.2421 26.3976C15.3823 26.2825 16.4317 25.724 17.164 24.8424C17.8963 23.9608 18.2528 22.8268 18.1567 21.6848C18.1443 21.454 18.1794 21.2231 18.2597 21.0064C18.3401 20.7898 18.4641 20.5919 18.624 20.425C18.7839 20.2582 18.9764 20.1259 19.1895 20.0364C19.4025 19.947 19.6317 19.9021 19.8628 19.9048C20.1615 19.903 20.4545 19.9865 20.7074 20.1455C21.4123 20.5922 22.2293 20.8302 23.0638 20.8317C23.2375 20.8285 23.4109 20.8158 23.5832 20.7937C24.6948 20.648 25.7098 20.0866 26.4241 19.2226C27.1384 18.3585 27.499 17.256 27.4331 16.1369C27.3673 15.0178 26.88 13.9651 26.0693 13.1908C25.2586 12.4165 24.1848 11.978 23.0638 11.9636C22.9286 11.9445 22.7914 11.9445 22.6563 11.9636" fill="#FCD15A"/>
<path d="M7.6414 7.79132L7.45348 6.87283H7.47248C7.54788 6.84272 7.6165 6.79788 7.67435 6.74093C7.73219 6.68397 7.77809 6.61604 7.80936 6.54113C7.84062 6.46621 7.85663 6.3858 7.85643 6.30463C7.85623 6.22345 7.83984 6.14312 7.80821 6.06836L8.51977 5.59961C8.55778 5.63762 8.59578 5.65662 8.61479 5.69252L7.7343 7.81243C7.70481 7.8003 7.67329 7.79386 7.6414 7.79343V7.79132ZM7.65829 4.43408L8.36986 4.90283C8.31502 5.05426 8.31502 5.22014 8.36986 5.37157L7.65829 5.83821C7.55024 5.73216 7.40778 5.66832 7.25672 5.65825C7.10566 5.64818 6.95599 5.69254 6.83482 5.78331L6.46109 5.44547C6.52454 5.35204 6.55847 5.2417 6.55847 5.12875C6.55847 5.01581 6.52454 4.90547 6.46109 4.81203L6.83482 4.4742C6.94488 4.55312 7.07539 4.59858 7.21066 4.60511C7.2931 4.6115 7.37593 4.59968 7.45328 4.57049C7.53064 4.5413 7.60063 4.49545 7.65829 4.43619V4.43408ZM5.84243 2.90116L5.95434 2.84415L6.72291 3.63172C6.65941 3.7149 6.61894 3.81334 6.6056 3.91713C6.59226 4.02093 6.6065 4.1264 6.6469 4.22293C6.6659 4.25883 6.6659 4.27783 6.68491 4.31584L6.31751 4.64523C6.21354 4.56489 6.08668 4.51974 5.95533 4.51632C5.82398 4.51291 5.69495 4.5514 5.58694 4.62622L4.9535 3.99278C5.02833 3.88477 5.06682 3.75575 5.0634 3.6244C5.05999 3.49304 5.01484 3.36619 4.9345 3.26222L5.29134 2.85048C5.37323 2.90502 5.4672 2.93872 5.56509 2.94866C5.66298 2.95859 5.76181 2.94446 5.85299 2.90749L5.84243 2.90116ZM7.78287 4.23772C7.81418 4.16263 7.83028 4.08208 7.83021 4.00073C7.83015 3.91938 7.81394 3.83886 7.78251 3.76382C7.75108 3.68879 7.70507 3.62075 7.64714 3.56364C7.5892 3.50653 7.52051 3.46149 7.44503 3.43113H7.41547L7.60339 2.47675C7.64169 2.47977 7.68014 2.47324 7.7153 2.45775L8.57678 4.62622C8.53877 4.64523 8.50288 4.68112 8.46487 4.70013L7.78287 4.23772ZM1.52659 2.54854C1.6026 2.51265 1.82642 2.39863 1.86443 2.21282L2.70901 2.37962C2.70596 2.50607 2.73348 2.63138 2.78925 2.74491L2.02279 3.50292C1.92025 3.43019 1.79799 3.39042 1.67228 3.38891L1.52659 2.54854ZM6.10636 2.67734C6.18303 2.56099 6.22209 2.42389 6.21827 2.28461L7.04385 2.09669C7.07302 2.17015 7.11747 2.23656 7.17426 2.29153C7.23105 2.3465 7.29888 2.38876 7.37324 2.41552L7.19166 3.37835C7.10892 3.38097 7.02674 3.39301 6.94673 3.41424C6.91354 3.42937 6.88234 3.44852 6.85382 3.47125L6.10636 2.67734ZM4.66423 1.19931L5.14987 1.90032C5.04893 2.008 4.98967 2.14813 4.9827 2.29556C4.97574 2.44298 5.02153 2.58807 5.11186 2.70479L4.75714 3.12708C4.66037 3.0729 4.55132 3.04444 4.44042 3.04444C4.32951 3.04444 4.22046 3.0729 4.1237 3.12708L3.80064 2.74491C3.89141 2.62374 3.93578 2.47407 3.9257 2.323C3.91563 2.17194 3.85179 2.02948 3.74574 1.92144L4.20604 1.21832C4.26686 1.23837 4.33003 1.25044 4.39396 1.25421C4.4842 1.25523 4.57356 1.23649 4.65579 1.19931H4.66423ZM1.88343 1.98478V1.87287L3.89566 0.99239C3.93155 1.0304 3.96956 1.08529 4.00757 1.1233L3.53882 1.83487C3.46355 1.80259 3.38256 1.78575 3.30067 1.78533C3.21877 1.78491 3.13762 1.80092 3.06202 1.83242C2.98642 1.86392 2.9179 1.91027 2.86053 1.96871C2.80316 2.02716 2.7581 2.09653 2.72802 2.1727L1.88343 1.98478ZM4.83948 1.0684C4.87136 1.03561 4.89647 0.996872 4.91338 0.954383L6.99318 1.74196V1.87287L6.16971 2.08402C6.13778 2.01004 6.09157 1.94309 6.03372 1.88701C5.97587 1.83092 5.90753 1.7868 5.8326 1.75719C5.75766 1.72757 5.67762 1.71303 5.59706 1.7144C5.5165 1.71577 5.43701 1.73303 5.36313 1.76519H5.34412L4.83948 1.0684ZM4.38974 0.0126688C4.247 0.0150079 4.10943 0.0664722 4.00021 0.158392C3.89098 0.250311 3.81677 0.377069 3.79008 0.51731C3.77103 0.604256 3.77103 0.694297 3.79008 0.781243L1.79686 1.64906C1.77181 1.60659 1.74048 1.56815 1.70395 1.53504C1.58192 1.45415 1.43564 1.41804 1.28998 1.43284C1.14433 1.44764 1.00829 1.51243 0.905019 1.6162C0.801745 1.71998 0.737605 1.85632 0.723508 2.00204C0.709411 2.14777 0.746227 2.29387 0.827695 2.41552C0.846698 2.43452 0.865702 2.45353 0.884705 2.45353C0.384889 3.09734 0.0780967 3.86982 0 4.68112V5.13087C0 6.31806 0.47161 7.45662 1.31108 8.2961C2.15055 9.13557 3.28912 9.60718 4.47631 9.60718C4.62608 9.60361 4.77552 9.59163 4.92394 9.57128C5.75963 9.48182 6.55267 9.15669 7.21066 8.63379C7.21066 8.65279 7.22755 8.65279 7.22755 8.6718C7.32695 8.7712 7.46177 8.82704 7.60234 8.82704C7.74291 8.82704 7.87772 8.7712 7.97712 8.6718C8.07652 8.5724 8.13237 8.43758 8.13237 8.29701C8.13237 8.15644 8.07652 8.02163 7.97712 7.92223C7.95584 7.89923 7.93086 7.87996 7.90322 7.86522L8.7837 5.75375C8.94 5.7859 9.10268 5.75642 9.23775 5.67146C9.37283 5.5865 9.46985 5.45263 9.50855 5.29783C9.54725 5.14302 9.52464 4.97924 9.44544 4.84071C9.36624 4.70219 9.23657 4.59962 9.08353 4.55444H9.06242C9.01372 4.5406 8.96306 4.53489 8.9125 4.53754C8.8744 4.53466 8.83615 4.54044 8.8006 4.55444L7.93912 2.37751C8.02694 2.34474 8.10639 2.29287 8.17174 2.22567C8.2371 2.15847 8.28672 2.0776 8.31703 1.9889C8.34735 1.90019 8.35759 1.80587 8.34704 1.71273C8.33648 1.61958 8.30538 1.52994 8.25599 1.45027C8.20659 1.3706 8.14013 1.30289 8.0614 1.25202C7.98266 1.20114 7.89362 1.16838 7.80069 1.15609C7.70776 1.1438 7.61326 1.15228 7.52401 1.18093C7.43475 1.20959 7.35297 1.25769 7.28456 1.32178C7.19654 1.37199 7.12362 1.44491 7.07342 1.53293L4.99995 0.730568C5.0158 0.651721 5.01568 0.5705 4.99959 0.491701C4.98351 0.412903 4.9518 0.338128 4.90633 0.271794C4.86086 0.205459 4.80256 0.148912 4.73486 0.105493C4.66717 0.0620745 4.59146 0.0326652 4.51221 0.0190032C4.47631 0.0190032 4.4383 0 4.4003 0L4.38974 0.0126688Z" fill="#FCD15A"/>
</g>
<defs>
<clipPath id="clip0_182_113">
<rect width="27.4405" height="32" fill="white"/>
</clipPath>
</defs>
</svg>
